<?xml version="1.0" encoding="UTF-8"?>
<svg width="85px" height="88px" viewBox="0 0 85 88" version="1.1" xmlns="http://www.w3.org/2000/svg" xmlns:xlink="http://www.w3.org/1999/xlink">
    <!-- Generator: Sketch 42 (36781) - http://www.bohemiancoding.com/sketch -->
    <title>Shape Copy 3</title>
    <desc>Created with Sketch.</desc>
    <defs>
        <filter x="-50%" y="-50%" width="200%" height="200%" filterUnits="objectBoundingBox" id="filter-1">
            <feOffset dx="0" dy="40" in="SourceAlpha" result="shadowOffsetOuter1"></feOffset>
            <feGaussianBlur stdDeviation="20" in="shadowOffsetOuter1" result="shadowBlurOuter1"></feGaussianBlur>
            <feColorMatrix values="0 0 0 0 0   0 0 0 0 0   0 0 0 0 0  0 0 0 0.2 0" type="matrix" in="shadowBlurOuter1" result="shadowMatrixOuter1"></feColorMatrix>
            <feMerge>
                <feMergeNode in="shadowMatrixOuter1"></feMergeNode>
                <feMergeNode in="SourceGraphic"></feMergeNode>
            </feMerge>
        </filter>
    </defs>
    <g id="Desktop" stroke="none" stroke-width="1" fill="none" fill-rule="evenodd">
        <g id="CMS-3" transform="translate(-1191.000000, -675.000000)" fill="#9012fe">
            <g id="box" filter="url(#filter-1)" transform="translate(536.000000, 105.000000)">
                <g id="arrows" transform="translate(0.000000, 460.000000)">
                    <path d="M698.671875,123.937577 L703.859375,118.125495 L681.625,118.125495 C681.28125,118.125495 681,117.844266 681,117.500541 C681,117.156815 681.28125,116.875586 681.625,116.875586 L703.859375,116.875586 L698.679688,111.063504 C698.453125,110.797899 698.429688,110.430738 698.671875,110.188568 C698.914062,109.946397 699.335938,109.930774 699.5625,110.180756 C699.5625,110.180756 705.75,116.977141 705.8125,117.05526 C705.875,117.133379 706,117.273994 706,117.500541 C706,117.727087 705.875,117.883325 705.8125,117.945821 C705.75,118.008316 699.5625,124.820325 699.5625,124.820325 C699.445312,124.937505 699.28125,125 699.117188,125 C698.953125,125 698.796875,124.937505 698.671875,124.820325 C698.429688,124.578155 698.4375,124.19537 698.671875,123.937577 Z" id="Shape-Copy-3"></path>
                </g>
            </g>
        </g>
    </g>
</svg>
