<?xml version="1.0" encoding="UTF-8"?>
<svg width="85px" height="88px" viewBox="0 0 85 88" version="1.1" xmlns="http://www.w3.org/2000/svg" xmlns:xlink="http://www.w3.org/1999/xlink">
    <!-- Generator: Sketch 42 (36781) - http://www.bohemiancoding.com/sketch -->
    <title>Shape Copy 4</title>
    <desc>Created with Sketch.</desc>
    <defs>
        <filter x="-50%" y="-50%" width="200%" height="200%" filterUnits="objectBoundingBox" id="filter-1">
            <feOffset dx="0" dy="40" in="SourceAlpha" result="shadowOffsetOuter1"></feOffset>
            <feGaussianBlur stdDeviation="20" in="shadowOffsetOuter1" result="shadowBlurOuter1"></feGaussianBlur>
            <feColorMatrix values="0 0 0 0 0   0 0 0 0 0   0 0 0 0 0  0 0 0 0.2 0" type="matrix" in="shadowBlurOuter1" result="shadowMatrixOuter1"></feColorMatrix>
            <feMerge>
                <feMergeNode in="shadowMatrixOuter1"></feMergeNode>
                <feMergeNode in="SourceGraphic"></feMergeNode>
            </feMerge>
        </filter>
    </defs>
    <g id="Desktop" stroke="none" stroke-width="1" fill="none" fill-rule="evenodd">
        <g id="CMS-3" transform="translate(-553.000000, -675.000000)" fill="#000000">
            <g id="box" filter="url(#filter-1)" transform="translate(536.000000, 105.000000)">
                <g id="arrows" transform="translate(0.000000, 460.000000)">
                    <path d="M68.671875,123.937577 L73.859375,118.125495 L51.625,118.125495 C51.28125,118.125495 51,117.844266 51,117.500541 C51,117.156815 51.28125,116.875586 51.625,116.875586 L73.859375,116.875586 L68.6796875,111.063504 C68.453125,110.797899 68.4296875,110.430738 68.671875,110.188568 C68.9140625,109.946397 69.3359375,109.930774 69.5625,110.180756 C69.5625,110.180756 75.75,116.977141 75.8125,117.05526 C75.875,117.133379 76,117.273994 76,117.500541 C76,117.727087 75.875,117.883325 75.8125,117.945821 C75.75,118.008316 69.5625,124.820325 69.5625,124.820325 C69.4453125,124.937505 69.28125,125 69.1171875,125 C68.953125,125 68.796875,124.937505 68.671875,124.820325 C68.4296875,124.578155 68.4375,124.19537 68.671875,123.937577 Z" id="Shape-Copy-4" transform="translate(63.500000, 117.500000) scale(-1, 1) translate(-63.500000, -117.500000) "></path>
                </g>
            </g>
        </g>
    </g>
</svg>