<?xml version="1.0" encoding="UTF-8"?>
<svg width="17px" height="10px" viewBox="0 0 17 10" version="1.1" xmlns="http://www.w3.org/2000/svg" xmlns:xlink="http://www.w3.org/1999/xlink">
    <!-- Generator: Sketch 42 (36781) - http://www.bohemiancoding.com/sketch -->
    <title>Shape Copy 3</title>
    <desc>Created with Sketch.</desc>
    <defs></defs>
    <g id="Desktop" stroke="none" stroke-width="1" fill="none" fill-rule="evenodd">
        <g id="CMS-3" transform="translate(-145.000000, -128.000000)" fill="#FFFFFF">
            <g id="back" transform="translate(145.000000, 123.000000)">
                <path d="M11.78125,14.2917177 L15.2395833,10.416997 L0.416666667,10.416997 C0.1875,10.416997 1.70530257e-13,10.2295105 1.70530257e-13,10.0003604 C1.70530257e-13,9.7712102 0.1875,9.58372371 0.416666667,9.58372371 L15.2395833,9.58372371 L11.7864583,5.70900298 C11.6354167,5.53193241 11.6197917,5.28715839 11.78125,5.12571169 C11.9427083,4.96426499 12.2239583,4.95384908 12.375,5.12050373 C12.375,5.12050373 16.5,9.65142717 16.5416667,9.70350675 C16.5833333,9.75558633 16.6666667,9.84932957 16.6666667,10.0003604 C16.6666667,10.1513911 16.5833333,10.2555503 16.5416667,10.297214 C16.5,10.3388776 12.375,14.880217 12.375,14.880217 C12.296875,14.9583363 12.1875,15 12.078125,15 C11.96875,15 11.8645833,14.9583363 11.78125,14.880217 C11.6197917,14.7187703 11.625,14.4635803 11.78125,14.2917177 Z" id="Shape-Copy-3" transform="translate(8.333333, 10.000000) scale(-1, 1) translate(-8.333333, -10.000000) "></path>
            </g>
        </g>
    </g>
</svg>